<mxfile host="app.diagrams.net" modified="2024-03-22T09:39:22.834Z" agent="Mozilla/5.0 (Macintosh; Intel Mac OS X 10_15_7) AppleWebKit/605.1.15 (KHTML, like Gecko) Version/17.4 Safari/605.1.15" etag="-_HJqM1rbQz4FuXVJXWe" version="24.0.0" type="device">
  <diagram name="Pagina-1" id="xmUh1cOQ1NuH3JSxneGe">
    <mxGraphModel dx="662" dy="387" grid="1" gridSize="10" guides="1" tooltips="1" connect="1" arrows="1" fold="1" page="1" pageScale="1" pageWidth="1500" pageHeight="500" math="1" shadow="0">
      <root>
        <mxCell id="0" />
        <mxCell id="1" parent="0" />
        <mxCell id="yM7De6chdsgMSSt919B--12" style="edgeStyle=orthogonalEdgeStyle;rounded=0;orthogonalLoop=1;jettySize=auto;html=1;exitX=1;exitY=0.5;exitDx=0;exitDy=0;entryX=0;entryY=0.5;entryDx=0;entryDy=0;strokeWidth=2;" parent="1" source="yM7De6chdsgMSSt919B--1" edge="1">
          <mxGeometry relative="1" as="geometry">
            <mxPoint x="790" y="245" as="targetPoint" />
          </mxGeometry>
        </mxCell>
        <mxCell id="yM7De6chdsgMSSt919B--1" value="&lt;font face=&quot;Courier New&quot;&gt;&lt;br&gt;&lt;b style=&quot;font-size: 23px;&quot; id=&quot;docs-internal-guid-d942a2f7-7fff-e894-ce47-3f57e4f40776&quot;&gt;&lt;p dir=&quot;ltr&quot; style=&quot;line-height: 1.2; margin-top: 0pt; margin-bottom: 0pt; font-size: 23px;&quot;&gt;&lt;span style=&quot;font-size: 23px; color: rgb(0, 195, 177); background-color: transparent; font-style: normal; font-variant-ligatures: normal; font-variant-caps: normal; font-variant-alternates: normal; font-variant-numeric: normal; font-variant-east-asian: normal; font-variant-position: normal; text-decoration: none; vertical-align: baseline; white-space: pre-wrap;&quot;&gt;def&lt;/span&gt;&lt;span style=&quot;font-weight: 400; font-size: 23px; color: rgb(0, 195, 177); background-color: transparent; font-style: normal; font-variant-ligatures: normal; font-variant-caps: normal; font-variant-alternates: normal; font-variant-numeric: normal; font-variant-east-asian: normal; font-variant-position: normal; font-variant-emoji: normal; text-decoration: none; vertical-align: baseline; white-space: pre-wrap;&quot;&gt; &lt;/span&gt;&lt;span style=&quot;font-weight: 400; font-size: 23px; color: rgb(0, 0, 0); background-color: transparent; font-style: normal; font-variant-ligatures: normal; font-variant-caps: normal; font-variant-alternates: normal; font-variant-numeric: normal; font-variant-east-asian: normal; font-variant-position: normal; font-variant-emoji: normal; text-decoration: none; vertical-align: baseline; white-space: pre-wrap;&quot;&gt;my_program(x: &lt;/span&gt;&lt;span style=&quot;font-size: 23px; background-color: transparent; font-style: normal; font-variant-ligatures: normal; font-variant-caps: normal; font-variant-alternates: normal; font-variant-numeric: normal; font-variant-east-asian: normal; font-variant-position: normal; font-variant-emoji: normal; text-decoration: none; vertical-align: baseline; white-space: pre-wrap;&quot;&gt;&lt;font style=&quot;&quot; color=&quot;#7ea6e0&quot;&gt;tensor&lt;/font&gt;&lt;/span&gt;&lt;span style=&quot;font-weight: 400; font-size: 23px; color: rgb(0, 0, 0); background-color: transparent; font-style: normal; font-variant-ligatures: normal; font-variant-caps: normal; font-variant-alternates: normal; font-variant-numeric: normal; font-variant-east-asian: normal; font-variant-position: normal; font-variant-emoji: normal; text-decoration: none; vertical-align: baseline; white-space: pre-wrap;&quot;&gt;) -&amp;gt; &lt;/span&gt;&lt;span style=&quot;font-size: 23px; background-color: transparent; font-style: normal; font-variant-ligatures: normal; font-variant-caps: normal; font-variant-alternates: normal; font-variant-numeric: normal; font-variant-east-asian: normal; font-variant-position: normal; font-variant-emoji: normal; text-decoration: none; vertical-align: baseline; white-space: pre-wrap;&quot;&gt;&lt;font style=&quot;&quot; color=&quot;#7ea6e0&quot;&gt;tensor&lt;/font&gt;&lt;/span&gt;&lt;span style=&quot;font-weight: 400; font-size: 23px; color: rgb(0, 0, 0); background-color: transparent; font-style: normal; font-variant-ligatures: normal; font-variant-caps: normal; font-variant-alternates: normal; font-variant-numeric: normal; font-variant-east-asian: normal; font-variant-position: normal; font-variant-emoji: normal; text-decoration: none; vertical-align: baseline; white-space: pre-wrap;&quot;&gt;:&lt;/span&gt;&lt;/p&gt;&lt;p dir=&quot;ltr&quot; style=&quot;font-weight: normal; line-height: 1.2; margin-top: 0pt; margin-bottom: 0pt; font-size: 23px;&quot;&gt;&lt;span style=&quot;font-size: 23px; color: rgb(0, 0, 0); background-color: transparent; font-weight: 400; font-style: normal; font-variant-ligatures: normal; font-variant-caps: normal; font-variant-alternates: normal; font-variant-numeric: normal; font-variant-east-asian: normal; font-variant-position: normal; font-variant-emoji: normal; text-decoration: none; vertical-align: baseline; white-space: pre-wrap;&quot;&gt;&amp;nbsp;&amp;nbsp;&amp;nbsp;&amp;nbsp;...&lt;/span&gt;&lt;/p&gt;&lt;p dir=&quot;ltr&quot; style=&quot;font-weight: normal; line-height: 1.2; margin-top: 0pt; margin-bottom: 0pt; font-size: 23px;&quot;&gt;&lt;span style=&quot;font-size: 23px; color: rgb(0, 0, 0); background-color: transparent; font-weight: 400; font-style: normal; font-variant-ligatures: normal; font-variant-caps: normal; font-variant-alternates: normal; font-variant-numeric: normal; font-variant-east-asian: normal; font-variant-position: normal; font-variant-emoji: normal; text-decoration: none; vertical-align: baseline; white-space: pre-wrap;&quot;&gt;&amp;nbsp;&amp;nbsp;&amp;nbsp;&amp;nbsp;...&lt;/span&gt;&lt;/p&gt;&lt;p dir=&quot;ltr&quot; style=&quot;font-weight: normal; line-height: 1.8; margin-top: 0pt; margin-bottom: 0pt; font-size: 23px;&quot;&gt;&lt;span style=&quot;font-size: 23px; color: rgb(0, 0, 0); background-color: transparent; font-weight: 400; font-style: normal; font-variant-ligatures: normal; font-variant-caps: normal; font-variant-alternates: normal; font-variant-numeric: normal; font-variant-east-asian: normal; font-variant-position: normal; font-variant-emoji: normal; text-decoration: none; vertical-align: baseline; white-space: pre-wrap;&quot;&gt;&amp;nbsp;&amp;nbsp;&amp;nbsp;&amp;nbsp;...&lt;/span&gt;&lt;/p&gt;&lt;span style=&quot;font-weight: 400; font-size: 23px; color: rgb(0, 0, 0); background-color: transparent; font-style: normal; font-variant-ligatures: normal; font-variant-caps: normal; font-variant-alternates: normal; font-variant-numeric: normal; font-variant-east-asian: normal; font-variant-position: normal; font-variant-emoji: normal; text-decoration: none; vertical-align: baseline; white-space: pre-wrap;&quot;&gt;&amp;nbsp;&amp;nbsp;&amp;nbsp;&amp;nbsp;&lt;/span&gt;&lt;span style=&quot;font-size: 23px; color: rgb(0, 195, 177); background-color: transparent; font-style: normal; font-variant-ligatures: normal; font-variant-caps: normal; font-variant-alternates: normal; font-variant-numeric: normal; font-variant-east-asian: normal; font-variant-position: normal; text-decoration: none; vertical-align: baseline; white-space: pre-wrap;&quot;&gt;return&lt;/span&gt;&lt;span style=&quot;font-weight: 400; font-size: 23px; color: rgb(0, 195, 177); background-color: transparent; font-style: normal; font-variant-ligatures: normal; font-variant-caps: normal; font-variant-alternates: normal; font-variant-numeric: normal; font-variant-east-asian: normal; font-variant-position: normal; font-variant-emoji: normal; text-decoration: none; vertical-align: baseline; white-space: pre-wrap;&quot;&gt;&amp;nbsp;&lt;/span&gt;&lt;span style=&quot;font-weight: 400; font-size: 23px; color: rgb(0, 0, 0); background-color: transparent; font-style: normal; font-variant-ligatures: normal; font-variant-caps: normal; font-variant-alternates: normal; font-variant-numeric: normal; font-variant-east-asian: normal; font-variant-position: normal; font-variant-emoji: normal; text-decoration: none; vertical-align: baseline; white-space: pre-wrap;&quot;&gt;y&lt;/span&gt;&lt;/b&gt;&lt;/font&gt;&lt;div&gt;&lt;br&gt;&lt;/div&gt;" style="text;html=1;align=left;verticalAlign=middle;whiteSpace=wrap;rounded=0;fontSize=23;" parent="1" vertex="1">
          <mxGeometry x="250" y="160" width="540" height="170" as="geometry" />
        </mxCell>
        <mxCell id="yM7De6chdsgMSSt919B--2" value="" style="endArrow=classic;html=1;rounded=0;exitX=0.583;exitY=0.051;exitDx=0;exitDy=0;exitPerimeter=0;edgeStyle=orthogonalEdgeStyle;curved=1;entryX=0;entryY=0.5;entryDx=0;entryDy=0;strokeWidth=2;strokeColor=#b85450;fillColor=#f8cecc;" parent="1" source="yM7De6chdsgMSSt919B--1" target="yM7De6chdsgMSSt919B--3" edge="1">
          <mxGeometry width="50" height="50" relative="1" as="geometry">
            <mxPoint x="830" y="160" as="sourcePoint" />
            <mxPoint x="670" y="130" as="targetPoint" />
          </mxGeometry>
        </mxCell>
        <mxCell id="yM7De6chdsgMSSt919B--3" value="&lt;font style=&quot;font-size: 14px;&quot;&gt;&lt;b style=&quot;font-size: 14px;&quot;&gt;Input types&lt;/b&gt;&lt;/font&gt;" style="text;html=1;align=center;verticalAlign=middle;whiteSpace=wrap;rounded=0;fontSize=14;fillColor=#f8cecc;strokeColor=default;fontColor=#000000;strokeWidth=2;" parent="1" vertex="1">
          <mxGeometry x="590" y="130" width="90" height="30" as="geometry" />
        </mxCell>
        <mxCell id="yM7De6chdsgMSSt919B--4" value="&lt;font style=&quot;font-size: 14px;&quot;&gt;&lt;b style=&quot;font-size: 14px;&quot;&gt;Output types&lt;/b&gt;&lt;/font&gt;" style="text;html=1;align=center;verticalAlign=middle;whiteSpace=wrap;rounded=0;fontSize=14;fillColor=#f8cecc;strokeColor=default;strokeWidth=2;" parent="1" vertex="1">
          <mxGeometry x="490" y="230" width="100" height="30" as="geometry" />
        </mxCell>
        <mxCell id="yM7De6chdsgMSSt919B--7" value="" style="endArrow=classic;html=1;rounded=0;entryX=1;entryY=0.5;entryDx=0;entryDy=0;edgeStyle=orthogonalEdgeStyle;curved=1;strokeWidth=2;strokeColor=#b85450;fillColor=#f8cecc;" parent="1" target="yM7De6chdsgMSSt919B--4" edge="1">
          <mxGeometry width="50" height="50" relative="1" as="geometry">
            <mxPoint x="690" y="200" as="sourcePoint" />
            <mxPoint x="740" y="200" as="targetPoint" />
            <Array as="points">
              <mxPoint x="690" y="200" />
              <mxPoint x="690" y="245" />
            </Array>
          </mxGeometry>
        </mxCell>
        <mxCell id="yM7De6chdsgMSSt919B--8" value="&lt;font style=&quot;font-size: 14px;&quot;&gt;&lt;b style=&quot;font-size: 14px;&quot;&gt;Differentiable primitives&lt;/b&gt;&lt;/font&gt;" style="text;html=1;align=center;verticalAlign=middle;whiteSpace=wrap;rounded=0;fontSize=14;fillColor=#f8cecc;strokeColor=default;strokeWidth=2;" parent="1" vertex="1">
          <mxGeometry x="470" y="340" width="110" height="40" as="geometry" />
        </mxCell>
        <mxCell id="yM7De6chdsgMSSt919B--9" value="" style="endArrow=classic;html=1;rounded=0;exitX=0.208;exitY=0.529;exitDx=0;exitDy=0;exitPerimeter=0;entryX=0.5;entryY=0;entryDx=0;entryDy=0;edgeStyle=orthogonalEdgeStyle;curved=1;strokeWidth=2;strokeColor=#b85450;fillColor=#f8cecc;" parent="1" source="yM7De6chdsgMSSt919B--1" target="yM7De6chdsgMSSt919B--8" edge="1">
          <mxGeometry width="50" height="50" relative="1" as="geometry">
            <mxPoint x="670" y="210" as="sourcePoint" />
            <mxPoint x="600" y="255" as="targetPoint" />
            <Array as="points">
              <mxPoint x="525" y="250" />
            </Array>
          </mxGeometry>
        </mxCell>
      </root>
    </mxGraphModel>
  </diagram>
</mxfile>
